<?xml version="1.0" encoding="UTF-8" standalone="no"?>
<svg
   xmlns:dc="http://purl.org/dc/elements/1.1/"
   xmlns:cc="http://creativecommons.org/ns#"
   xmlns:rdf="http://www.w3.org/1999/02/22-rdf-syntax-ns#"
   xmlns:svg="http://www.w3.org/2000/svg"
   xmlns="http://www.w3.org/2000/svg"
   xmlns:sodipodi="http://sodipodi.sourceforge.net/DTD/sodipodi-0.dtd"
   xmlns:inkscape="http://www.inkscape.org/namespaces/inkscape"
   width="32"
   height="32"
   viewBox="0 0 8.4666667 8.4666667"
   version="1.1"
   id="svg8"
   sodipodi:docname="black_upload_cloud.svg"
   inkscape:version="1.0 (4035a4fb49, 2020-05-01)">
  <sodipodi:namedview
     inkscape:document-rotation="0"
     pagecolor="#ffffff"
     bordercolor="#666666"
     borderopacity="1"
     objecttolerance="10"
     gridtolerance="10"
     guidetolerance="10"
     inkscape:pageopacity="0"
     inkscape:pageshadow="2"
     inkscape:window-width="1500"
     inkscape:window-height="938"
     id="namedview13"
     showgrid="false"
     inkscape:zoom="22.75"
     inkscape:cx="14.263736"
     inkscape:cy="16"
     inkscape:window-x="-6"
     inkscape:window-y="-6"
     inkscape:window-maximized="1"
     inkscape:current-layer="cloud" />
  <defs
     id="defs2" />
  <metadata
     id="metadata5">
    <rdf:RDF>
      <cc:Work
         rdf:about="">
        <dc:format>image/svg+xml</dc:format>
        <dc:type
           rdf:resource="http://purl.org/dc/dcmitype/StillImage" />
        <dc:title />
      </cc:Work>
    </rdf:RDF>
  </metadata>
  <g
     inkscape:groupmode="layer"
     id="cloud"
     inkscape:label="Cloud">
    <path
       d="M 5.5442395,1.9777005 A 1.9253538,1.7948673 0 0 0 3.8606984,2.9028654 1.7000373,1.5848269 0 0 0 3.4591106,2.8560711 1.7000373,1.5848269 0 0 0 1.8647475,3.8966332 H 1.3828942 c -0.72405648,0 -1.30697094,0.5780956 -1.30697094,1.2961665 0,0.718071 0.58291446,1.2961665 1.30697094,1.2961665 H 7.083824 c 0.7240566,0 1.3069194,-0.5780955 1.3069194,-1.2961665 0,-0.5882269 -0.391242,-1.0823012 -0.9307404,-1.2418151 A 1.9253538,1.7948673 0 0 0 7.4695651,3.7725945 1.9253538,1.7948673 0 0 0 5.5442114,1.9777011 Z"
       fill="none"
       stroke="#00bcd4"
       stroke-width="0.151847"
       id="cloud-prop"
       style="stroke:#000000" />
  </g>
  <g
     inkscape:groupmode="layer"
     id="arrow"
     inkscape:label="Arrow"
     style="display:inline">
    <path
       id="arrow-prop"
       style="fill:#000000;stroke:none;stroke-width:0.0646122"
       d="m 19.158203,15.792969 -2.931641,3.05664 -2.996093,3.033203 h 0.03125 c -0.03449,0.02531 -0.06055,0.05922 -0.06055,0.105469 v 0.304688 c 0,0.07717 0.0615,0.138672 0.138672,0.138672 h 2.363281 v 5.796875 c 0,0.02619 0.02068,0.04687 0.04687,0.04687 h 6.824219 c 0.02619,0 0.04883,-0.02068 0.04883,-0.04687 v -5.796875 h 2.367187 c 0.07717,0 0.138672,-0.0615 0.138672,-0.138672 v -0.304688 c 0,-0.04783 -0.02793,-0.08236 -0.06445,-0.107422 h 0.03125 l -3,-3.033203 z m -3.449219,12.699219 c -0.0034,0 -0.0059,0.0044 -0.0059,0.0078 v 0.884766 c 0,0.0034 0.0025,0.0078 0.0059,0.0078 h 6.90625 c 0.0034,0 0.0078,-0.0044 0.0078,-0.0078 V 28.5 c 0,-0.0034 -0.0044,-0.0078 -0.0078,-0.0078 z"
       transform="scale(0.26458333)" />
  </g>
</svg>
