<?xml version="1.0" encoding="UTF-8" standalone="no"?>
<svg
   xmlns:dc="http://purl.org/dc/elements/1.1/"
   xmlns:cc="http://creativecommons.org/ns#"
   xmlns:rdf="http://www.w3.org/1999/02/22-rdf-syntax-ns#"
   xmlns:svg="http://www.w3.org/2000/svg"
   xmlns="http://www.w3.org/2000/svg"
   xmlns:sodipodi="http://sodipodi.sourceforge.net/DTD/sodipodi-0.dtd"
   xmlns:inkscape="http://www.inkscape.org/namespaces/inkscape"
   inkscape:export-ydpi="768"
   inkscape:export-xdpi="768"
   inkscape:export-filename="C:\Users\brent\Documents\GitHub\PICD-Capstone\client\src\imgs\logov2-256x256.png"
   sodipodi:docname="logov2-2.svg"
   inkscape:version="1.0 (4035a4fb49, 2020-05-01)"
   id="svg8"
   version="1.1"
   viewBox="0 0 8.4666667 8.4666667"
   height="32"
   width="32">
  <defs
     id="defs2">
    <linearGradient
       id="a"
       x1="37.89117"
       x2="49.280157"
       y1="32.711438"
       y2="38.833817"
       gradientTransform="matrix(0.0697369,0,0,0.07509411,1.0265905,1.2753328)"
       gradientUnits="userSpaceOnUse">
      <stop
         stop-color="#eefb11"
         offset="0"
         id="stop154" />
      <stop
         stop-color="#fbcd11"
         offset="1"
         id="stop156" />
    </linearGradient>
  </defs>
  <sodipodi:namedview
     inkscape:window-maximized="1"
     inkscape:window-y="-6"
     inkscape:window-x="-6"
     inkscape:window-height="938"
     inkscape:window-width="1500"
     inkscape:pagecheckerboard="true"
     units="px"
     showgrid="false"
     inkscape:document-rotation="0"
     inkscape:current-layer="layer1"
     inkscape:document-units="px"
     inkscape:cy="11.233807"
     inkscape:cx="15.487206"
     inkscape:zoom="16"
     inkscape:pageshadow="2"
     inkscape:pageopacity="0.0"
     borderopacity="1.0"
     bordercolor="#666666"
     pagecolor="#ffffff"
     id="base" />
  <metadata
     id="metadata5">
    <rdf:RDF>
      <cc:Work
         rdf:about="">
        <dc:format>image/svg+xml</dc:format>
        <dc:type
           rdf:resource="http://purl.org/dc/dcmitype/StillImage" />
        <dc:title></dc:title>
      </cc:Work>
    </rdf:RDF>
  </metadata>
  <g
     id="layer1"
     inkscape:groupmode="layer"
     inkscape:label="Layer 1">
    <path
       d="M 2.0581652,1.1461691e-7 C 1.8756224,1.1461691e-7 1.8456525,0.06993533 1.8456525,0.49789951 V 0.8935051 H 1.7077783 C 1.2111498,0.89435892 0.91163348,1.1741524 0.91163348,1.6367008 V 1.8292845 H 0.51667107 c -0.42715089,0 -0.49707234,0.030049 -0.49707234,0.2129383 0,0.1828907 0.06992145,0.2124161 0.49707234,0.2124161 H 0.91163348 V 2.5949224 2.9352058 H 0.51667107 c -0.42715089,0 -0.49707234,0.030047 -0.49707234,0.2129381 0,0.1828907 0.06992145,0.212938 0.49707234,0.212938 H 0.91163348 V 3.7013653 4.041649 H 0.51667107 c -0.42715089,0 -0.49707234,0.029526 -0.49707234,0.2124161 0,0.1828906 0.06992145,0.2129382 0.49707234,0.2129382 H 0.91163348 V 4.8072866 5.1475701 H 0.51667107 c -0.4287708,0 -0.49707234,0.029637 -0.49707234,0.2160696 0,0.1713421 0.07527704,0.2045784 0.49085232,0.218157 l 0.37993121,0.012525 0.0124394,0.2870491 0.0124394,0.2870488 H 0.55036141 c -0.33028389,0 -0.37458777,0.010225 -0.46856445,0.1043813 -0.06851702,0.06865 -0.09427681,0.1298745 -0.07619351,0.1805802 0.05972016,0.1674506 0.10263051,0.1831893 0.50225545,0.1831893 h 0.39288929 l 0.0196963,0.2359019 C 0.95234859,7.2579208 1.1698847,7.4765206 1.5616111,7.5170277 l 0.2415388,0.025052 v 0.3674226 c 0,0.2637269 0.018906,0.3940293 0.066346,0.4618879 0.084848,0.1213679 0.294473,0.1283232 0.3566068,0.012004 0.024176,-0.045258 0.044057,-0.2555078 0.044057,-0.4676289 v -0.385689 h 0.2975177 0.296999 V 7.930901 c 0,0.4362979 0.043246,0.5349547 0.2337643,0.5349547 0.1905171,0 0.2332454,-0.098656 0.2332454,-0.5349547 V 7.5300762 h 0.318769 0.3182505 v 0.4008247 c 0,0.4362979 0.042728,0.5349547 0.2332458,0.5349547 0.1905174,0 0.2337639,-0.098656 0.2337639,-0.5349547 V 7.5300762 h 0.3182508 0.3187691 v 0.4008247 c -1e-7,0.4362979 0.042727,0.5349547 0.2332454,0.5349547 0.1905175,0 0.233764,-0.098656 0.233764,-0.5349547 V 7.5300762 H 5.857995 6.1767639 v 0.4008247 c 0,0.4362979 0.042727,0.5349547 0.2332456,0.5349547 0.1898646,0 0.2337639,-0.098706 0.2337639,-0.528692 V 7.5420799 l 0.216141,-0.026095 C 7.2723053,7.46705 7.4927874,7.2317211 7.4927874,6.839593 V 6.6365712 h 0.446795 c 0.4353297,0 0.4478691,-0.00284 0.494999,-0.1064692 0.035885,-0.078908 0.036413,-0.1330579 0.00103,-0.2108503 C 8.3900233,6.2189912 8.3686899,6.2134329 7.9509855,6.2018224 L 7.5140388,6.1898185 7.501599,5.9027698 7.4891593,5.6157209 h 0.4053289 c 0.3487056,0 0.4172742,-0.011872 0.490334,-0.085071 0.1033229,-0.1035197 0.1079,-0.2019281 0.014513,-0.3053161 C 8.3403212,5.1600008 8.2621297,5.1475693 7.9110744,5.1475693 H 7.4927874 V 4.8323381 4.5176282 L 7.9209227,4.5030151 C 8.2855542,4.4905603 8.3578983,4.4757566 8.4091836,4.4054184 8.4878325,4.2975564 8.4857903,4.1914367 8.4029648,4.1084529 8.3512669,4.0566566 8.2413417,4.0416488 7.9147041,4.0416488 H 7.4927874 V 3.7264168 3.4111851 L 7.9209227,3.3965721 C 8.2855542,3.3841184 8.3578983,3.3698356 8.4091836,3.2994975 8.4878325,3.191636 8.4857903,3.0855161 8.4029648,3.0025324 8.3512286,2.9506977 8.2408921,2.935206 7.9126307,2.935206 H 7.4891593 l 0.012439,-0.3251481 0.012439,-0.3256701 0.3612714,0.0073 C 8.2912931,2.2999178 8.4415598,2.2448598 8.4610152,2.0782325 8.4846297,1.8760014 8.3823865,1.8292845 7.9147029,1.8292845 H 7.4927874 V 1.6126932 c 0,-0.417749 -0.2023592,-0.64400762 -0.6266531,-0.70039944 L 6.6437735,0.88254506 V 0.50833763 C 6.6437735,0.10018809 6.5976035,1.1461691e-7 6.4094913,1.1461691e-7 6.2400564,1.1461691e-7 6.176764,0.14748461 6.176764,0.5412178 V 0.8935051 H 5.8579951 5.5397444 V 0.52921393 C 5.5397444,0.09980983 5.4998684,1.1461691e-7 5.3282684,1.1461691e-7 5.1337623,1.1461691e-7 5.072735,0.12947613 5.072735,0.5412178 V 0.8935051 H 4.7539659 4.4357153 V 0.5135567 C 4.4357153,0.09957699 4.3901963,1.1461691e-7 4.2014331,1.1461691e-7 4.0319983,1.1461691e-7 3.9687056,0.14748461 3.9687056,0.5412178 V 0.8935051 H 3.6504552 3.3316861 V 0.52921393 C 3.3316861,0.09980983 3.2918101,1.1461691e-7 3.1202101,1.1461691e-7 2.925705,1.1461691e-7 2.8646764,0.12947613 2.8646764,0.5412178 V 0.8935051 H 2.5676774 2.2701595 V 0.49789951 C 2.2701595,0.06993558 2.2407085,1.1461691e-7 2.0581652,1.1461691e-7 Z"
       style="fill:#000000;stroke-width:0.0425016"
       id="path24" />
    <path
       transform="scale(0.26458333)"
       id="path36"
       d=""
       style="fill:#ffffff;stroke-width:0.0631345" />
    <path
       id="path119"
       d="M 5.2604788,1.979291 Z"
       style="fill:#61dafb;stroke-width:0.0103231" />
    <path
       style="fill:#ffff00;stroke:#800000"
       id="path161"
       stroke-width="0.0437813"
       stroke="#ff8600"
       fill-rule="evenodd"
       fill="url(#a)"
       d="M 4.946003,1.6762329 2.9229404,3.7372876 4.013423,3.7753656 2.283153,5.4949254 3.016003,5.5085954 1.8017025,6.8501153 4.7359246,5.2137764 3.6437051,5.2252956 5.85463,3.4598558 4.6587103,3.4569294 6.6236629,1.6212221 4.9461476,1.6762419 Z" />
  </g>
</svg>
