<?xml version="1.0" encoding="UTF-8" standalone="no"?>
<svg
   xmlns:dc="http://purl.org/dc/elements/1.1/"
   xmlns:cc="http://creativecommons.org/ns#"
   xmlns:rdf="http://www.w3.org/1999/02/22-rdf-syntax-ns#"
   xmlns:svg="http://www.w3.org/2000/svg"
   xmlns="http://www.w3.org/2000/svg"
   xmlns:sodipodi="http://sodipodi.sourceforge.net/DTD/sodipodi-0.dtd"
   xmlns:inkscape="http://www.inkscape.org/namespaces/inkscape"
   sodipodi:docname="logov2.svg"
   inkscape:version="1.0 (4035a4fb49, 2020-05-01)"
   id="svg8"
   version="1.1"
   viewBox="0 0 8.4666667 8.4666667"
   height="32"
   width="32">
  <defs
     id="defs2" />
  <sodipodi:namedview
     inkscape:window-maximized="1"
     inkscape:window-y="-6"
     inkscape:window-x="-6"
     inkscape:window-height="938"
     inkscape:window-width="1500"
     inkscape:pagecheckerboard="true"
     units="px"
     showgrid="false"
     inkscape:document-rotation="0"
     inkscape:current-layer="layer1"
     inkscape:document-units="px"
     inkscape:cy="14.695712"
     inkscape:cx="7.7110259"
     inkscape:zoom="22.627417"
     inkscape:pageshadow="2"
     inkscape:pageopacity="0.0"
     borderopacity="1.0"
     bordercolor="#666666"
     pagecolor="#ffffff"
     id="base" />
  <metadata
     id="metadata5">
    <rdf:RDF>
      <cc:Work
         rdf:about="">
        <dc:format>image/svg+xml</dc:format>
        <dc:type
           rdf:resource="http://purl.org/dc/dcmitype/StillImage" />
        <dc:title></dc:title>
      </cc:Work>
    </rdf:RDF>
  </metadata>
  <g
     id="layer1"
     inkscape:groupmode="layer"
     inkscape:label="Layer 1">
    <path
       d="M 2.0724121,0 C 1.8886057,0 1.8584283,0.06993523 1.8584283,0.49789939 V 0.89350497 H 1.7195998 C 1.2195336,0.89435879 0.91794389,1.1741523 0.91794389,1.6367007 V 1.8292844 H 0.52024752 c -0.43010766,0 -0.50051311,0.030048 -0.50051311,0.2129382 0,0.1828907 0.07040545,0.2124162 0.50051311,0.2124162 H 0.91794389 V 2.5949222 2.9352056 H 0.52024752 c -0.43010766,0 -0.50051311,0.030047 -0.50051311,0.2129381 0,0.1828907 0.07040545,0.212938 0.50051311,0.212938 H 0.91794389 V 3.7013651 4.0416487 H 0.52024752 c -0.43010766,0 -0.50051311,0.029526 -0.50051311,0.2124162 0,0.1828906 0.07040545,0.2129381 0.50051311,0.2129381 H 0.91794389 V 4.8072863 5.1475699 H 0.52024752 c -0.43173878,0 -0.50051311,0.029637 -0.50051311,0.2160695 0,0.1713421 0.07579812,0.2045784 0.49425004,0.2181571 l 0.38256112,0.012525 0.0125255,0.287049 0.0125255,0.2870488 h -0.3674255 c -0.33257014,0 -0.37718069,0.010225 -0.47180789,0.1043813 -0.0689913,0.06865 -0.0949294,0.1298745 -0.07672092,0.1805801 0.06013354,0.1674507 0.10334092,0.1831894 0.50573209,0.1831894 h 0.3956089 l 0.0198326,0.2359019 c 0.032125,0.3854485 0.25116695,0.6040484 0.64560495,0.6445555 l 0.2432107,0.025052 V 7.909502 c 0,0.2637269 0.019037,0.3940294 0.066805,0.461888 0.085435,0.1213678 0.2965113,0.1283231 0.3590752,0.012004 0.024343,-0.045258 0.044362,-0.2555078 0.044362,-0.4676288 V 7.5300759 h 0.2995771 0.2990549 v 0.4008246 c 0,0.436298 0.043545,0.5349548 0.2353824,0.5349548 0.1918359,0 0.23486,-0.098656 0.23486,-0.5349548 V 7.5300759 H 3.6757236 3.996177 v 0.4008246 c 0,0.436298 0.043024,0.5349548 0.2348604,0.5349548 0.1918362,0 0.235382,-0.098656 0.235382,-0.5349548 V 7.5300759 h 0.3204538 0.3209756 v 0.4008246 c -1e-7,0.436298 0.043023,0.5349548 0.23486,0.5349548 0.1918362,0 0.2353821,-0.098656 0.2353821,-0.5349548 V 7.5300759 H 5.8985445 6.21952 v 0.4008246 c 0,0.436298 0.043023,0.5349548 0.2348601,0.5349548 0.1911789,0 0.235382,-0.098707 0.235382,-0.528692 V 7.5420796 L 6.9073993,7.5159842 C 7.3226448,7.4670497 7.5446531,7.2317207 7.5446531,6.8395927 V 6.6365709 h 0.4498877 c 0.4383431,0 0.4509693,-0.00284 0.4984254,-0.1064692 0.036133,-0.078909 0.036665,-0.1330579 0.00104,-0.2108503 C 8.4480997,6.2189909 8.4266186,6.2134326 8.0060229,6.2018221 L 7.5660516,6.1898182 7.5535257,5.9027695 7.5409999,5.6157206 h 0.4081346 c 0.3511193,0 0.4201626,-0.011872 0.4937281,-0.085071 C 8.5469007,5.4271299 8.5515095,5.3287215 8.4574761,5.2253336 8.3980536,5.1600005 8.3193208,5.147569 7.9658355,5.147569 H 7.5446531 V 4.8323378 4.5176279 L 7.975752,4.5030149 C 8.3429075,4.4905601 8.4157523,4.4757563 8.4673926,4.4054182 8.5465859,4.2975562 8.5445296,4.1914365 8.4611308,4.1084527 8.409075,4.0566564 8.2983889,4.0416485 7.9694903,4.0416485 H 7.5446531 V 3.7264166 3.4111849 L 7.975752,3.3965719 C 8.3429075,3.3841182 8.4157523,3.3698354 8.4673926,3.2994973 8.5465859,3.1916358 8.5445296,3.0855159 8.4611308,3.0025322 8.4090365,2.9506975 8.2979362,2.9352058 7.9674026,2.9352058 H 7.5409999 l 0.012525,-0.3251481 0.012525,-0.3256701 0.3637721,0.0073 C 8.3486861,2.2999144 8.4999929,2.2448599 8.519583,2.0782324 8.5433606,1.8760012 8.4404104,1.8292844 7.9694891,1.8292844 H 7.5446531 V 1.612693 c 0,-0.417749 -0.20376,-0.64400755 -0.6309909,-0.70039937 l -0.2239,-0.0297487 V 0.50833752 C 6.6897622,0.10018799 6.6432728,0 6.4538583,0 6.2832506,0 6.2195201,0.14748451 6.2195201,0.54121768 V 0.89350497 H 5.8985446 5.578091 V 0.52921381 C 5.578091,0.09980973 5.5379389,0 5.3651511,0 5.1692986,0 5.1078489,0.12947603 5.1078489,0.54121768 V 0.89350497 H 4.7868733 4.4664197 V 0.51355659 C 4.4664197,0.09957689 4.4205857,0 4.2305158,0 4.0599082,0 3.9961773,0.14748451 3.9961773,0.54121768 V 0.89350497 H 3.675724 3.3547484 V 0.52921381 C 3.3547484,0.09980973 3.3145964,0 3.1418085,0 2.945957,0 2.884506,0.12947603 2.884506,0.54121768 V 0.89350497 H 2.5854511 2.2858738 V 0.49789939 C 2.2858738,0.06993548 2.2562184,0 2.0724121,0 Z"
       style="fill:#000000;stroke-width:0.0426485"
       id="path24" />
    <path
       transform="scale(0.26458333)"
       id="path36"
       d=""
       style="fill:#ffffff;stroke-width:0.0631345" />
    <path
       id="path119"
       d="M 5.2604788,1.979291 Z"
       style="fill:#61dafb;stroke-width:0.0103231" />
    <g
       id="g152">
      <path
         style="fill:#999999;stroke-width:0.0103231"
         d="m 6.7655824,4.2338495 c 0,-0.3354998 -0.4201489,-0.6534504 -1.0643085,-0.850621 C 5.8499261,2.7266812 5.7838585,2.2043339 5.4927479,2.0371002 5.4256479,1.9978725 5.3471926,1.979291 5.2615111,1.979291 v 0.2302044 c 0.047486,0 0.085681,0.00929 0.117683,0.02684 0.1403938,0.08052 0.2012999,0.3871151 0.1538138,0.7814564 C 5.5216525,3.1148287 5.503071,3.2170271 5.4803602,3.3212901 5.278028,3.2717393 5.0571143,3.233544 4.8248453,3.2087686 4.6854838,3.0177918 4.5409608,2.8443642 4.3954055,2.6926151 4.7319376,2.3798261 5.0478236,2.2084631 5.2625434,2.2084631 V 1.9782587 c -0.2838844,0 -0.6555149,0.2023321 -1.0312747,0.5533165 C 3.855509,2.1826554 3.4838785,1.9823879 3.199994,1.9823879 v 0.2302044 c 0.2136876,0 0.5306058,0.1703307 0.8671379,0.4810551 C 3.9226089,2.8453965 3.778086,3.0177918 3.6407891,3.2087686 3.4074877,3.233544 3.1865741,3.2717393 2.9842419,3.3223224 2.9604988,3.2190917 2.9429496,3.1189579 2.9305619,3.0229533 2.8820435,2.6286121 2.9419173,2.3220169 3.0812787,2.2404646 c 0.030969,-0.018582 0.071229,-0.02684 0.1187153,-0.02684 V 1.9834202 c -0.086714,0 -0.1651691,0.018582 -0.2333013,0.057809 C 2.6766144,2.2084631 2.6115791,2.7297782 2.7612636,3.3842608 2.1191686,3.5824637 1.7010843,3.899382 1.7010843,4.2338495 c 0,0.3354997 0.4201489,0.6534503 1.0643085,0.8506209 -0.1486522,0.6565473 -0.082585,1.1788946 0.208526,1.3461284 0.0671,0.039228 0.1455553,0.057809 0.2322691,0.057809 0.2838844,0 0.6555149,-0.2023321 1.0312747,-0.5533165 0.3757597,0.3489198 0.7473902,0.5491873 1.0312747,0.5491873 0.086714,0 0.1651691,-0.018581 0.2333014,-0.057809 C 5.7921169,6.2592358 5.8571523,5.7379208 5.7074677,5.0834381 6.3474981,4.8862675 6.7655824,4.5683169 6.7655824,4.2338495 Z M 5.4215187,3.5453007 C 5.3833233,3.6784683 5.3358372,3.8157651 5.2821573,3.953062 5.2398327,3.8704774 5.1954435,3.7878928 5.146925,3.7053083 5.0994389,3.6227237 5.0488559,3.5422038 4.9982728,3.4637484 c 0.1465876,0.021679 0.2880137,0.048519 0.4232459,0.081552 z M 4.9487221,4.6447076 c -0.08052,0.1393615 -0.1631045,0.2714968 -0.248786,0.3943413 -0.1538137,0.01342 -0.3096921,0.020646 -0.4666028,0.020646 -0.1558783,0 -0.3117567,-0.00723 -0.4645381,-0.019614 C 3.6831137,4.9172367 3.5994969,4.7861337 3.5189769,4.6478046 3.4405216,4.5125723 3.3692924,4.3752755 3.3042571,4.2369464 3.3682601,4.0986172 3.4405216,3.9602881 3.5179446,3.8250559 c 0.08052,-0.1393615 0.1631045,-0.2714968 0.248786,-0.3943413 0.1538137,-0.01342 0.3096921,-0.020646 0.4666027,-0.020646 0.1558784,0 0.3117568,0.00723 0.4645382,0.019614 C 4.783553,3.5525268 4.8671698,3.6836298 4.9476898,3.821959 5.0261451,3.9571912 5.0973743,4.094488 5.1624096,4.2328171 5.0973743,4.3711463 5.0261451,4.5094754 4.9487221,4.6447076 Z M 5.2821573,4.5105077 C 5.3379018,4.6488369 5.385388,4.787166 5.4246156,4.9213659 5.2893834,4.9543997 5.146925,4.982272 4.9993051,5.0039505 5.0498882,4.9244628 5.1004712,4.8429106 5.1479574,4.7592937 5.1954435,4.6767092 5.2398327,4.5930923 5.2821573,4.5105077 Z M 4.235398,5.6119793 C 4.1393934,5.5128778 4.0433889,5.402421 3.9484166,5.2816411 c 0.092908,0.00413 0.1878799,0.00723 0.2838844,0.00723 0.097037,0 0.1930415,-0.00206 0.2869814,-0.00723 C 4.4263748,5.402421 4.3303702,5.5128778 4.235398,5.6119793 Z M 3.4673616,5.0039505 C 3.320774,4.982272 3.1793479,4.955432 3.0441157,4.9223982 3.082311,4.7892306 3.1297972,4.6519338 3.1834771,4.514637 c 0.042325,0.082585 0.086714,0.1651691 0.1352322,0.2477536 0.048519,0.082585 0.098069,0.1631045 0.1486523,0.2415599 z M 4.2302364,2.8557196 c 0.096005,0.099102 0.1920091,0.2095583 0.2869814,0.3303383 -0.092908,-0.00413 -0.1878799,-0.00723 -0.2838845,-0.00723 -0.097037,0 -0.1930414,0.00206 -0.2869813,0.00723 C 4.03926,3.0652779 4.1352642,2.9548211 4.2302364,2.8557196 Z M 3.4663292,3.4637484 C 3.4157462,3.5432361 3.3651632,3.6247883 3.317677,3.7084052 3.2701909,3.7909898 3.2258017,3.8735743 3.1834771,3.9561589 3.1277326,3.8178297 3.0802464,3.6795006 3.0410188,3.5453007 3.176251,3.5132992 3.3187093,3.4854269 3.4663292,3.4637484 Z M 2.5320914,4.7561968 C 2.1666547,4.6003184 1.9302564,4.3959217 1.9302564,4.2338495 c 0,-0.1620722 0.2363983,-0.3675013 0.601835,-0.5223474 0.088778,-0.038195 0.1858153,-0.072262 0.2859491,-0.104263 0.058842,0.2023322 0.1362645,0.4129228 0.232269,0.628675 C 2.9553373,4.4506339 2.8789466,4.6601922 2.8211374,4.8614921 2.718939,4.8294906 2.6219021,4.7943922 2.5320914,4.7561968 Z M 3.0874726,6.2313635 C 2.9470788,6.1508436 2.8861727,5.8442484 2.9336588,5.4499071 c 0.011355,-0.097037 0.029937,-0.1992353 0.052648,-0.3034983 0.2023322,0.049551 0.4232459,0.087746 0.6555149,0.1125215 0.1393615,0.1909768 0.2838845,0.3644044 0.4294398,0.5161535 -0.3365321,0.312789 -0.6524181,0.484152 -0.8671379,0.484152 -0.046454,-0.00103 -0.085682,-0.010323 -0.116651,-0.027872 z M 5.5361048,5.4447456 c 0.048518,0.3943412 -0.011355,0.7009364 -0.1507168,0.7824887 -0.030969,0.018581 -0.071229,0.02684 -0.1187153,0.02684 -0.2136876,0 -0.5306058,-0.1703307 -0.8671379,-0.4810551 C 4.5440578,5.6212701 4.6885807,5.4488748 4.8258776,5.257898 5.059179,5.233123 5.2800926,5.194927 5.4824248,5.1443442 c 0.023743,0.104263 0.042325,0.2043968 0.05368,0.3004014 z M 5.933543,4.7561968 C 5.8447646,4.7943922 5.7477277,4.8284583 5.6475939,4.8604598 5.5887524,4.6581276 5.5113294,4.447537 5.4153249,4.2317848 5.5102971,4.017065 5.5866878,3.8075067 5.644497,3.6062068 c 0.1021984,0.032002 0.1992353,0.0671 0.2900783,0.1052953 0.3654367,0.1558784 0.601835,0.3602752 0.601835,0.5223474 C 6.535378,4.3959217 6.2989797,4.6013507 5.933543,4.7561968 Z M 3.1989617,1.9823879 Z"
         id="path115" />
      <circle
         style="fill:#000080;stroke-width:0.0103231"
         cx="4.2323008"
         cy="4.2338495"
         r="0.4717643"
         id="circle117" />
      <path
         id="circle138"
         style="fill:#800000;stroke-width:0.00630234"
         d="M 5.5013006,2.416664 C 5.3653347,2.4243113 5.2425942,2.335685 5.207078,2.2042171 5.1715619,2.0727492 5.2329775,1.9343731 5.3542981,1.8725142 c 0.1213206,-0.061859 0.2693862,-0.030293 0.3549297,0.075667 0.085543,0.10596 0.085184,0.2573526 -8.625e-4,0.3629048 0,0 -0.030005,-0.07035 -0.062045,-0.1230599 C 5.6204823,2.1497855 5.5791781,2.0856938 5.485127,2.129102 5.41278,2.1621749 5.4475947,2.2519502 5.45793,2.2839896 c 0.0093,0.023771 0.043371,0.1326744 0.043371,0.1326744 z"
         sodipodi:nodetypes="csssccccc" />
      <path
         id="circle140"
         style="fill:#800000;stroke-width:0.00630234"
         d="M 5.1834225,6.2469082 C 5.2028349,6.1138374 5.3117506,6.011912 5.4458149,6.0013562 5.5798792,5.9908004 5.7034044,6.0744242 5.7434036,6.2028171 5.7834028,6.3312099 5.7292283,6.4701938 5.61289,6.5376479 5.4965517,6.605102 5.3490186,6.5830701 5.2574631,6.48457 c 0,0 0.094978,0.00601 0.1469607,-0.030407 0.069794,-0.0489 0.085852,-0.080038 0.0702,-0.1346725 -0.00684,-0.051128 -0.081244,-0.079811 -0.1604528,-0.068818 -0.054502,0.00756 -0.1307483,-0.00376 -0.1307483,-0.00376 z"
         sodipodi:nodetypes="cssscscscc" />
      <path
         id="circle142"
         style="fill:#800000;stroke-width:0.00630234"
         d="m 1.8292203,4.5585134 c -0.135005,-0.00579 -0.2537414,-0.1031751 -0.277212,-0.2362502 -0.023471,-0.1330751 0.04873,-0.2645747 0.17361,-0.316197 0.1248799,-0.051622 0.2688576,-0.00949 0.3462012,0.1013198 0.077344,0.1108053 0.064302,0.2457181 -0.027212,0.3451416 0,0 0,0 -0.055588,-0.062221 -0.072083,-0.080684 -0.1098491,-0.097131 -0.1592787,-0.075252 -0.1195943,0.047247 -0.05515,0.163729 -0.05515,0.163729 z"
         sodipodi:nodetypes="cssscsccc" />
    </g>
  </g>
</svg>
